<?xml version="1.0" encoding="utf-8"?>
<!-- Generator: Adobe Illustrator 27.1.1, SVG Export Plug-In . SVG Version: 6.00 Build 0)  -->
<svg version="1.1" id="Слой_1" xmlns="http://www.w3.org/2000/svg" xmlns:xlink="http://www.w3.org/1999/xlink" x="0px" y="0px"
	 viewBox="0 0 24.6 24" style="enable-background:new 0 0 24.6 24;" xml:space="preserve">
<style type="text/css">
	.st0{fill:#FFFFFF;}
	.st1{clip-path:url(#SVGID_00000127035489749302113680000007515872831100436157_);}
	.st2{fill-rule:evenodd;clip-rule:evenodd;}
</style>
<rect y="0" class="st0" width="24.6" height="24"/>
<g>
	<g>
		<defs>
			<rect id="SVGID_1_" y="0" width="35" height="24"/>
		</defs>
		<clipPath id="SVGID_00000178896057927428075970000001314143764541822647_">
			<use xlink:href="#SVGID_1_"  style="overflow:visible;"/>
		</clipPath>
		<g style="clip-path:url(#SVGID_00000178896057927428075970000001314143764541822647_);">
			<path class="st2" d="M24.6,0H0v12.8h1.3V1.3h22v4.2h-2.2l0,0l0,0c-0.1,0.1-0.2,0.4-0.4,0.8c-0.2,0.4-0.4,0.9-0.7,1.5
				c-0.3,0.6-0.6,1.2-0.9,1.9s-0.7,1.4-1,2.1s-0.7,1.4-1,2.1c-0.3,0.7-0.6,1.3-0.9,1.8L10.7,5.5H9.1l7,12.9l6-11.7h2.5l0,0l0,0V0z
				 M0,17.2L0,17.2L0,17.2h8.5l-6-11.6h1.7L9.8,17l-0.7,1.4l0,0l0,0H1.3v4.3h22V11.2h1.3V24H0V17.2z"/>
		</g>
	</g>
</g>
</svg>
